<mxfile host="app.diagrams.net" modified="2023-07-01T14:10:27.815Z" agent="Mozilla/5.0 (Macintosh; Intel Mac OS X 10_15_7) AppleWebKit/537.36 (KHTML, like Gecko) Chrome/114.0.0.0 Safari/537.36" etag="zyxq4YZjNONR5_1EZU6S" version="21.5.2" type="device">
  <diagram name="Página-1" id="RUqDyB7BGCWibIav4YOm">
    <mxGraphModel dx="2807" dy="2533" grid="1" gridSize="10" guides="1" tooltips="1" connect="1" arrows="1" fold="1" page="1" pageScale="1" pageWidth="827" pageHeight="1169" math="0" shadow="0">
      <root>
        <mxCell id="0" />
        <mxCell id="1" parent="0" />
        <mxCell id="6pKuEE7EUR7B_FoUaWT5-97" value="" style="rounded=0;whiteSpace=wrap;html=1;" vertex="1" parent="1">
          <mxGeometry x="1190" y="-99" width="1370" height="839" as="geometry" />
        </mxCell>
        <mxCell id="6pKuEE7EUR7B_FoUaWT5-30" value="" style="rounded=0;whiteSpace=wrap;html=1;" vertex="1" parent="1">
          <mxGeometry x="-70" y="-80" width="1060" height="810" as="geometry" />
        </mxCell>
        <mxCell id="6pKuEE7EUR7B_FoUaWT5-1" value="" style="rounded=1;whiteSpace=wrap;html=1;fillColor=#EAFFE9;" vertex="1" parent="1">
          <mxGeometry x="280" y="30" width="450" height="610" as="geometry" />
        </mxCell>
        <mxCell id="6pKuEE7EUR7B_FoUaWT5-2" value="Ordens" style="rounded=1;whiteSpace=wrap;html=1;fillColor=#FFE599;" vertex="1" parent="1">
          <mxGeometry x="330" y="70" width="190" height="60" as="geometry" />
        </mxCell>
        <mxCell id="6pKuEE7EUR7B_FoUaWT5-3" value="Contas" style="rounded=1;whiteSpace=wrap;html=1;fillColor=#FFE599;" vertex="1" parent="1">
          <mxGeometry x="330" y="150" width="190" height="60" as="geometry" />
        </mxCell>
        <mxCell id="6pKuEE7EUR7B_FoUaWT5-4" value="E-mails" style="rounded=1;whiteSpace=wrap;html=1;fillColor=#FFE599;" vertex="1" parent="1">
          <mxGeometry x="330" y="230" width="190" height="60" as="geometry" />
        </mxCell>
        <mxCell id="6pKuEE7EUR7B_FoUaWT5-5" value="Promoções" style="rounded=1;whiteSpace=wrap;html=1;fillColor=#FFE599;" vertex="1" parent="1">
          <mxGeometry x="330" y="310" width="190" height="60" as="geometry" />
        </mxCell>
        <mxCell id="6pKuEE7EUR7B_FoUaWT5-6" value="Autenticação" style="rounded=1;whiteSpace=wrap;html=1;fillColor=#FFE599;" vertex="1" parent="1">
          <mxGeometry x="330" y="390" width="190" height="60" as="geometry" />
        </mxCell>
        <mxCell id="6pKuEE7EUR7B_FoUaWT5-7" value="Produtos" style="rounded=1;whiteSpace=wrap;html=1;fillColor=#FFE599;" vertex="1" parent="1">
          <mxGeometry x="330" y="470" width="190" height="60" as="geometry" />
        </mxCell>
        <mxCell id="6pKuEE7EUR7B_FoUaWT5-10" value="Carrinho" style="rounded=1;whiteSpace=wrap;html=1;fillColor=#FFE599;" vertex="1" parent="1">
          <mxGeometry x="330" y="554.5" width="190" height="60" as="geometry" />
        </mxCell>
        <mxCell id="6pKuEE7EUR7B_FoUaWT5-11" value="&lt;font style=&quot;font-size: 18px;&quot;&gt;&lt;b&gt;e-commerce&lt;/b&gt;&lt;/font&gt;" style="text;html=1;strokeColor=none;fillColor=none;align=center;verticalAlign=middle;whiteSpace=wrap;rounded=0;" vertex="1" parent="1">
          <mxGeometry x="310" y="10" width="230" height="80" as="geometry" />
        </mxCell>
        <mxCell id="6pKuEE7EUR7B_FoUaWT5-29" style="edgeStyle=orthogonalEdgeStyle;rounded=0;orthogonalLoop=1;jettySize=auto;html=1;shape=link;" edge="1" parent="1" source="6pKuEE7EUR7B_FoUaWT5-12" target="6pKuEE7EUR7B_FoUaWT5-17">
          <mxGeometry relative="1" as="geometry" />
        </mxCell>
        <mxCell id="6pKuEE7EUR7B_FoUaWT5-12" value="" style="rounded=1;whiteSpace=wrap;html=1;" vertex="1" parent="1">
          <mxGeometry x="540" y="70" width="120" height="540" as="geometry" />
        </mxCell>
        <mxCell id="6pKuEE7EUR7B_FoUaWT5-14" value="&lt;span style=&quot;font-size: 18px;&quot;&gt;&lt;b&gt;data access layer&lt;/b&gt;&lt;/span&gt;" style="text;html=1;strokeColor=none;fillColor=none;align=center;verticalAlign=middle;whiteSpace=wrap;rounded=0;rotation=270;" vertex="1" parent="1">
          <mxGeometry x="490" y="300" width="220" height="40" as="geometry" />
        </mxCell>
        <mxCell id="6pKuEE7EUR7B_FoUaWT5-16" value="&lt;font style=&quot;font-size: 18px;&quot;&gt;&lt;b style=&quot;&quot;&gt;banco&lt;/b&gt;&lt;/font&gt;" style="text;html=1;strokeColor=none;fillColor=none;align=center;verticalAlign=middle;whiteSpace=wrap;rounded=0;rotation=0;" vertex="1" parent="1">
          <mxGeometry x="750" y="390" width="160" height="30" as="geometry" />
        </mxCell>
        <mxCell id="6pKuEE7EUR7B_FoUaWT5-17" value="" style="shape=image;html=1;verticalAlign=top;verticalLabelPosition=bottom;labelBackgroundColor=#ffffff;imageAspect=0;aspect=fixed;image=https://cdn1.iconfinder.com/data/icons/heroicons-solid/20/database-128.png" vertex="1" parent="1">
          <mxGeometry x="760" y="270" width="140" height="140" as="geometry" />
        </mxCell>
        <mxCell id="6pKuEE7EUR7B_FoUaWT5-26" style="edgeStyle=orthogonalEdgeStyle;rounded=0;orthogonalLoop=1;jettySize=auto;html=1;entryX=-0.004;entryY=0.201;entryDx=0;entryDy=0;entryPerimeter=0;shape=link;" edge="1" parent="1" source="6pKuEE7EUR7B_FoUaWT5-18" target="6pKuEE7EUR7B_FoUaWT5-1">
          <mxGeometry relative="1" as="geometry" />
        </mxCell>
        <mxCell id="6pKuEE7EUR7B_FoUaWT5-18" value="" style="rounded=1;whiteSpace=wrap;html=1;" vertex="1" parent="1">
          <mxGeometry x="130" y="75" width="120" height="155" as="geometry" />
        </mxCell>
        <mxCell id="6pKuEE7EUR7B_FoUaWT5-19" value="Suporte" style="image;aspect=fixed;html=1;points=[];align=center;fontSize=12;image=img/lib/azure2/general/Help_and_Support.svg;" vertex="1" parent="1">
          <mxGeometry x="162" y="100" width="56.00000000000001" height="69" as="geometry" />
        </mxCell>
        <mxCell id="6pKuEE7EUR7B_FoUaWT5-27" style="edgeStyle=orthogonalEdgeStyle;rounded=0;orthogonalLoop=1;jettySize=auto;html=1;entryX=0;entryY=0.5;entryDx=0;entryDy=0;shape=link;" edge="1" parent="1" source="6pKuEE7EUR7B_FoUaWT5-20" target="6pKuEE7EUR7B_FoUaWT5-1">
          <mxGeometry relative="1" as="geometry" />
        </mxCell>
        <mxCell id="6pKuEE7EUR7B_FoUaWT5-20" value="" style="rounded=1;whiteSpace=wrap;html=1;" vertex="1" parent="1">
          <mxGeometry x="131.5" y="252.5" width="120" height="165" as="geometry" />
        </mxCell>
        <mxCell id="6pKuEE7EUR7B_FoUaWT5-21" value="Seu website" style="sketch=0;pointerEvents=1;shadow=0;dashed=0;html=1;strokeColor=none;fillColor=#505050;labelPosition=center;verticalLabelPosition=bottom;verticalAlign=top;outlineConnect=0;align=center;shape=mxgraph.office.concepts.website;" vertex="1" parent="1">
          <mxGeometry x="163.5" y="307.5" width="59" height="49" as="geometry" />
        </mxCell>
        <mxCell id="6pKuEE7EUR7B_FoUaWT5-28" style="edgeStyle=orthogonalEdgeStyle;rounded=0;orthogonalLoop=1;jettySize=auto;html=1;entryX=0;entryY=0.824;entryDx=0;entryDy=0;entryPerimeter=0;shape=link;" edge="1" parent="1" source="6pKuEE7EUR7B_FoUaWT5-23" target="6pKuEE7EUR7B_FoUaWT5-1">
          <mxGeometry relative="1" as="geometry" />
        </mxCell>
        <mxCell id="6pKuEE7EUR7B_FoUaWT5-23" value="" style="rounded=1;whiteSpace=wrap;html=1;" vertex="1" parent="1">
          <mxGeometry x="130" y="450" width="120" height="165" as="geometry" />
        </mxCell>
        <mxCell id="6pKuEE7EUR7B_FoUaWT5-24" value="Websites externos&lt;br&gt;integrados ao seu &lt;br&gt;serviço" style="sketch=0;pointerEvents=1;shadow=0;dashed=0;html=1;strokeColor=none;fillColor=#505050;labelPosition=center;verticalLabelPosition=bottom;verticalAlign=top;outlineConnect=0;align=center;shape=mxgraph.office.concepts.website;" vertex="1" parent="1">
          <mxGeometry x="162" y="505" width="59" height="49" as="geometry" />
        </mxCell>
        <mxCell id="6pKuEE7EUR7B_FoUaWT5-37" value="" style="rounded=1;whiteSpace=wrap;html=1;" vertex="1" parent="1">
          <mxGeometry x="1440" y="-66" width="120" height="205" as="geometry" />
        </mxCell>
        <mxCell id="6pKuEE7EUR7B_FoUaWT5-38" value="Suporte" style="image;aspect=fixed;html=1;points=[];align=center;fontSize=12;image=img/lib/azure2/general/Help_and_Support.svg;" vertex="1" parent="1">
          <mxGeometry x="1472" y="2" width="56.00000000000001" height="69" as="geometry" />
        </mxCell>
        <mxCell id="6pKuEE7EUR7B_FoUaWT5-39" value="" style="rounded=1;whiteSpace=wrap;html=1;" vertex="1" parent="1">
          <mxGeometry x="1440" y="179" width="120" height="250" as="geometry" />
        </mxCell>
        <mxCell id="6pKuEE7EUR7B_FoUaWT5-40" value="Seu website" style="sketch=0;pointerEvents=1;shadow=0;dashed=0;html=1;strokeColor=none;fillColor=#505050;labelPosition=center;verticalLabelPosition=bottom;verticalAlign=top;outlineConnect=0;align=center;shape=mxgraph.office.concepts.website;" vertex="1" parent="1">
          <mxGeometry x="1470.5" y="268" width="59" height="49" as="geometry" />
        </mxCell>
        <mxCell id="6pKuEE7EUR7B_FoUaWT5-41" value="" style="rounded=1;whiteSpace=wrap;html=1;" vertex="1" parent="1">
          <mxGeometry x="1440" y="469" width="120" height="220" as="geometry" />
        </mxCell>
        <mxCell id="6pKuEE7EUR7B_FoUaWT5-42" value="Websites externos&lt;br&gt;integrados ao seu &lt;br&gt;serviço" style="sketch=0;pointerEvents=1;shadow=0;dashed=0;html=1;strokeColor=none;fillColor=#505050;labelPosition=center;verticalLabelPosition=bottom;verticalAlign=top;outlineConnect=0;align=center;shape=mxgraph.office.concepts.website;" vertex="1" parent="1">
          <mxGeometry x="1470.5" y="544.5" width="59" height="49" as="geometry" />
        </mxCell>
        <mxCell id="6pKuEE7EUR7B_FoUaWT5-43" value="" style="rounded=1;whiteSpace=wrap;html=1;" vertex="1" parent="1">
          <mxGeometry x="1606.5" y="-68.5" width="120" height="757.5" as="geometry" />
        </mxCell>
        <mxCell id="6pKuEE7EUR7B_FoUaWT5-44" value="&lt;font style=&quot;&quot;&gt;&lt;font style=&quot;font-size: 24px;&quot;&gt;API Gateway / Load Balancing&lt;/font&gt;&lt;br&gt;&lt;/font&gt;" style="text;html=1;strokeColor=none;fillColor=none;align=center;verticalAlign=middle;whiteSpace=wrap;rounded=0;rotation=-90;" vertex="1" parent="1">
          <mxGeometry x="1501.5" y="264" width="330" height="30" as="geometry" />
        </mxCell>
        <mxCell id="6pKuEE7EUR7B_FoUaWT5-72" style="edgeStyle=orthogonalEdgeStyle;rounded=0;orthogonalLoop=1;jettySize=auto;html=1;shape=link;" edge="1" parent="1" source="6pKuEE7EUR7B_FoUaWT5-45" target="6pKuEE7EUR7B_FoUaWT5-57">
          <mxGeometry relative="1" as="geometry" />
        </mxCell>
        <mxCell id="6pKuEE7EUR7B_FoUaWT5-45" value="Ordens" style="rounded=1;whiteSpace=wrap;html=1;fillColor=#FFE599;" vertex="1" parent="1">
          <mxGeometry x="1790.5" y="-61" width="125" height="70" as="geometry" />
        </mxCell>
        <mxCell id="6pKuEE7EUR7B_FoUaWT5-46" value="" style="shape=image;html=1;verticalAlign=top;verticalLabelPosition=bottom;labelBackgroundColor=#ffffff;imageAspect=0;aspect=fixed;image=https://cdn1.iconfinder.com/data/icons/heroicons-solid/20/database-128.png" vertex="1" parent="1">
          <mxGeometry x="1895.5" y="-21" width="40" height="40" as="geometry" />
        </mxCell>
        <mxCell id="6pKuEE7EUR7B_FoUaWT5-68" style="edgeStyle=orthogonalEdgeStyle;rounded=0;orthogonalLoop=1;jettySize=auto;html=1;" edge="1" parent="1" source="6pKuEE7EUR7B_FoUaWT5-47" target="6pKuEE7EUR7B_FoUaWT5-67">
          <mxGeometry relative="1" as="geometry">
            <Array as="points">
              <mxPoint x="2156.5" y="89" />
              <mxPoint x="2156.5" y="89" />
            </Array>
          </mxGeometry>
        </mxCell>
        <mxCell id="6pKuEE7EUR7B_FoUaWT5-47" value="Contas" style="rounded=1;whiteSpace=wrap;html=1;fillColor=#FFE599;" vertex="1" parent="1">
          <mxGeometry x="1790.5" y="54" width="125" height="70" as="geometry" />
        </mxCell>
        <mxCell id="6pKuEE7EUR7B_FoUaWT5-48" value="" style="shape=image;html=1;verticalAlign=top;verticalLabelPosition=bottom;labelBackgroundColor=#ffffff;imageAspect=0;aspect=fixed;image=https://cdn1.iconfinder.com/data/icons/heroicons-solid/20/database-128.png" vertex="1" parent="1">
          <mxGeometry x="1895.5" y="99" width="40" height="40" as="geometry" />
        </mxCell>
        <mxCell id="6pKuEE7EUR7B_FoUaWT5-49" value="E-mails" style="rounded=1;whiteSpace=wrap;html=1;fillColor=#FFE599;" vertex="1" parent="1">
          <mxGeometry x="1790.5" y="169" width="125" height="70" as="geometry" />
        </mxCell>
        <mxCell id="6pKuEE7EUR7B_FoUaWT5-50" value="" style="shape=image;html=1;verticalAlign=top;verticalLabelPosition=bottom;labelBackgroundColor=#ffffff;imageAspect=0;aspect=fixed;image=https://cdn1.iconfinder.com/data/icons/heroicons-solid/20/database-128.png" vertex="1" parent="1">
          <mxGeometry x="1895.5" y="213.5" width="40" height="40" as="geometry" />
        </mxCell>
        <mxCell id="6pKuEE7EUR7B_FoUaWT5-51" value="Promoções" style="rounded=1;whiteSpace=wrap;html=1;fillColor=#FFE599;" vertex="1" parent="1">
          <mxGeometry x="1790.5" y="286.5" width="125" height="70" as="geometry" />
        </mxCell>
        <mxCell id="6pKuEE7EUR7B_FoUaWT5-52" value="" style="shape=image;html=1;verticalAlign=top;verticalLabelPosition=bottom;labelBackgroundColor=#ffffff;imageAspect=0;aspect=fixed;image=https://cdn1.iconfinder.com/data/icons/heroicons-solid/20/database-128.png" vertex="1" parent="1">
          <mxGeometry x="1895.5" y="329" width="40" height="40" as="geometry" />
        </mxCell>
        <mxCell id="6pKuEE7EUR7B_FoUaWT5-77" style="edgeStyle=orthogonalEdgeStyle;rounded=0;orthogonalLoop=1;jettySize=auto;html=1;entryX=-0.019;entryY=0.497;entryDx=0;entryDy=0;entryPerimeter=0;shape=link;" edge="1" parent="1" source="6pKuEE7EUR7B_FoUaWT5-53" target="6pKuEE7EUR7B_FoUaWT5-76">
          <mxGeometry relative="1" as="geometry" />
        </mxCell>
        <mxCell id="6pKuEE7EUR7B_FoUaWT5-53" value="Autenticação" style="rounded=1;whiteSpace=wrap;html=1;fillColor=#FFE599;" vertex="1" parent="1">
          <mxGeometry x="1790.5" y="389" width="125" height="70" as="geometry" />
        </mxCell>
        <mxCell id="6pKuEE7EUR7B_FoUaWT5-54" value="" style="shape=image;html=1;verticalAlign=top;verticalLabelPosition=bottom;labelBackgroundColor=#ffffff;imageAspect=0;aspect=fixed;image=https://cdn1.iconfinder.com/data/icons/heroicons-solid/20/database-128.png" vertex="1" parent="1">
          <mxGeometry x="1895.5" y="429" width="40" height="40" as="geometry" />
        </mxCell>
        <mxCell id="6pKuEE7EUR7B_FoUaWT5-73" style="edgeStyle=orthogonalEdgeStyle;rounded=0;orthogonalLoop=1;jettySize=auto;html=1;shape=link;" edge="1" parent="1" source="6pKuEE7EUR7B_FoUaWT5-55" target="6pKuEE7EUR7B_FoUaWT5-66">
          <mxGeometry relative="1" as="geometry">
            <mxPoint x="2376.5" y="259" as="targetPoint" />
            <Array as="points">
              <mxPoint x="2076.5" y="539" />
              <mxPoint x="2076.5" y="489" />
            </Array>
          </mxGeometry>
        </mxCell>
        <mxCell id="6pKuEE7EUR7B_FoUaWT5-55" value="Produtos" style="rounded=1;whiteSpace=wrap;html=1;fillColor=#FFE599;" vertex="1" parent="1">
          <mxGeometry x="1790.5" y="504" width="125" height="70" as="geometry" />
        </mxCell>
        <mxCell id="6pKuEE7EUR7B_FoUaWT5-56" value="" style="shape=image;html=1;verticalAlign=top;verticalLabelPosition=bottom;labelBackgroundColor=#ffffff;imageAspect=0;aspect=fixed;image=https://cdn1.iconfinder.com/data/icons/heroicons-solid/20/database-128.png" vertex="1" parent="1">
          <mxGeometry x="1895.5" y="549" width="40" height="40" as="geometry" />
        </mxCell>
        <mxCell id="6pKuEE7EUR7B_FoUaWT5-57" value="Cache distribuido" style="image;sketch=0;aspect=fixed;html=1;points=[];align=center;fontSize=12;image=img/lib/mscae/Cache_Redis_Product.svg;" vertex="1" parent="1">
          <mxGeometry x="2016.5" y="250.2" width="79.52" height="66.8" as="geometry" />
        </mxCell>
        <mxCell id="6pKuEE7EUR7B_FoUaWT5-64" style="edgeStyle=orthogonalEdgeStyle;rounded=0;orthogonalLoop=1;jettySize=auto;html=1;exitX=0.5;exitY=0;exitDx=0;exitDy=0;exitPerimeter=0;" edge="1" parent="1" source="6pKuEE7EUR7B_FoUaWT5-66">
          <mxGeometry relative="1" as="geometry">
            <mxPoint x="2186.5666666666666" y="366.5" as="sourcePoint" />
            <mxPoint x="1914.5" y="209" as="targetPoint" />
            <Array as="points">
              <mxPoint x="2156.5" y="209" />
              <mxPoint x="1914.5" y="209" />
            </Array>
          </mxGeometry>
        </mxCell>
        <mxCell id="6pKuEE7EUR7B_FoUaWT5-62" style="edgeStyle=orthogonalEdgeStyle;rounded=0;orthogonalLoop=1;jettySize=auto;html=1;" edge="1" parent="1" source="6pKuEE7EUR7B_FoUaWT5-59" target="6pKuEE7EUR7B_FoUaWT5-66">
          <mxGeometry relative="1" as="geometry">
            <mxPoint x="2191.5" y="529" as="targetPoint" />
            <Array as="points">
              <mxPoint x="2276.5" y="629" />
            </Array>
          </mxGeometry>
        </mxCell>
        <mxCell id="6pKuEE7EUR7B_FoUaWT5-75" style="edgeStyle=orthogonalEdgeStyle;rounded=0;orthogonalLoop=1;jettySize=auto;html=1;entryX=0.009;entryY=0.697;entryDx=0;entryDy=0;entryPerimeter=0;shape=link;" edge="1" parent="1" source="6pKuEE7EUR7B_FoUaWT5-59" target="6pKuEE7EUR7B_FoUaWT5-74">
          <mxGeometry relative="1" as="geometry">
            <Array as="points">
              <mxPoint x="1853.5" y="692" />
            </Array>
          </mxGeometry>
        </mxCell>
        <mxCell id="6pKuEE7EUR7B_FoUaWT5-59" value="Carrinho" style="rounded=1;whiteSpace=wrap;html=1;fillColor=#FFE599;" vertex="1" parent="1">
          <mxGeometry x="1790.5" y="619" width="126" height="60" as="geometry" />
        </mxCell>
        <mxCell id="6pKuEE7EUR7B_FoUaWT5-60" value="" style="shape=image;html=1;verticalAlign=top;verticalLabelPosition=bottom;labelBackgroundColor=#ffffff;imageAspect=0;aspect=fixed;image=https://cdn1.iconfinder.com/data/icons/heroicons-solid/20/database-128.png" vertex="1" parent="1">
          <mxGeometry x="1895.5" y="649" width="40" height="40" as="geometry" />
        </mxCell>
        <mxCell id="6pKuEE7EUR7B_FoUaWT5-66" value="" style="outlineConnect=0;dashed=0;verticalLabelPosition=bottom;verticalAlign=top;align=center;html=1;shape=mxgraph.aws3.topic;fillColor=#5294CF;gradientColor=none;" vertex="1" parent="1">
          <mxGeometry x="2236.5" y="394" width="80" height="111" as="geometry" />
        </mxCell>
        <mxCell id="6pKuEE7EUR7B_FoUaWT5-69" style="edgeStyle=orthogonalEdgeStyle;rounded=0;orthogonalLoop=1;jettySize=auto;html=1;" edge="1" parent="1" source="6pKuEE7EUR7B_FoUaWT5-67">
          <mxGeometry relative="1" as="geometry">
            <mxPoint x="1916.5" y="189" as="targetPoint" />
            <Array as="points">
              <mxPoint x="2156.5" y="189" />
              <mxPoint x="1916.5" y="189" />
            </Array>
          </mxGeometry>
        </mxCell>
        <mxCell id="6pKuEE7EUR7B_FoUaWT5-67" value="" style="outlineConnect=0;dashed=0;verticalLabelPosition=bottom;verticalAlign=top;align=center;html=1;shape=mxgraph.aws3.topic;fillColor=#5294CF;gradientColor=none;" vertex="1" parent="1">
          <mxGeometry x="2236.5" y="36" width="80" height="111" as="geometry" />
        </mxCell>
        <mxCell id="6pKuEE7EUR7B_FoUaWT5-74" value="Cache distribuido" style="image;sketch=0;aspect=fixed;html=1;points=[];align=center;fontSize=12;image=img/lib/mscae/Cache_Redis_Product.svg;" vertex="1" parent="1">
          <mxGeometry x="2022.22" y="649" width="73.8" height="62" as="geometry" />
        </mxCell>
        <mxCell id="6pKuEE7EUR7B_FoUaWT5-76" value="Cache distribuido" style="image;sketch=0;aspect=fixed;html=1;points=[];align=center;fontSize=12;image=img/lib/mscae/Cache_Redis_Product.svg;" vertex="1" parent="1">
          <mxGeometry x="2020.4299999999998" y="391.5" width="77.39" height="65" as="geometry" />
        </mxCell>
        <mxCell id="6pKuEE7EUR7B_FoUaWT5-78" value="" style="shape=image;verticalLabelPosition=bottom;labelBackgroundColor=default;verticalAlign=top;aspect=fixed;imageAspect=0;image=https://devkico.itexto.com.br/wp-content/uploads/2014/08/spring-boot-project-logo.png;" vertex="1" parent="1">
          <mxGeometry x="1771.5" y="-90" width="59" height="59" as="geometry" />
        </mxCell>
        <mxCell id="6pKuEE7EUR7B_FoUaWT5-79" value="" style="shape=image;verticalLabelPosition=bottom;labelBackgroundColor=default;verticalAlign=top;aspect=fixed;imageAspect=0;image=https://www.javatpoint.com/js/nodejs/images/node-js-tutorial.png;" vertex="1" parent="1">
          <mxGeometry x="1772.65" y="29" width="56.71" height="65.5" as="geometry" />
        </mxCell>
        <mxCell id="6pKuEE7EUR7B_FoUaWT5-81" value="" style="shape=image;verticalLabelPosition=bottom;labelBackgroundColor=default;verticalAlign=top;aspect=fixed;imageAspect=0;image=https://upload.wikimedia.org/wikipedia/commons/thumb/0/05/Go_Logo_Blue.svg/1200px-Go_Logo_Blue.svg.png;" vertex="1" parent="1">
          <mxGeometry x="1759.47" y="274.28" width="83.06" height="31.22" as="geometry" />
        </mxCell>
        <mxCell id="6pKuEE7EUR7B_FoUaWT5-83" value="" style="shape=image;verticalLabelPosition=bottom;labelBackgroundColor=default;verticalAlign=top;aspect=fixed;imageAspect=0;image=https://www.javatpoint.com/js/nodejs/images/node-js-tutorial.png;" vertex="1" parent="1">
          <mxGeometry x="1773.7900000000002" y="589" width="56.71" height="65.5" as="geometry" />
        </mxCell>
        <mxCell id="6pKuEE7EUR7B_FoUaWT5-84" value="" style="shape=image;verticalLabelPosition=bottom;labelBackgroundColor=default;verticalAlign=top;aspect=fixed;imageAspect=0;image=https://upload.wikimedia.org/wikipedia/commons/thumb/9/9a/Laravel.svg/1200px-Laravel.svg.png;" vertex="1" parent="1">
          <mxGeometry x="1774.5" y="144.5" width="56" height="58.23" as="geometry" />
        </mxCell>
        <mxCell id="6pKuEE7EUR7B_FoUaWT5-85" value="" style="shape=image;verticalLabelPosition=bottom;labelBackgroundColor=default;verticalAlign=top;aspect=fixed;imageAspect=0;image=https://www.javacodegeeks.com/wp-content/uploads/2014/07/spring-security-project.png;" vertex="1" parent="1">
          <mxGeometry x="1771.5" y="375" width="54" height="54" as="geometry" />
        </mxCell>
        <mxCell id="6pKuEE7EUR7B_FoUaWT5-93" value="" style="shape=image;verticalLabelPosition=bottom;labelBackgroundColor=default;verticalAlign=top;aspect=fixed;imageAspect=0;image=https://o.remove.bg/downloads/a7d18bf6-54fb-491c-b8f2-f66bb89d3f38/image-removebg-preview.png;" vertex="1" parent="1">
          <mxGeometry x="1762.5" y="486.27" width="72" height="67.23" as="geometry" />
        </mxCell>
      </root>
    </mxGraphModel>
  </diagram>
</mxfile>
